<svg preserveAspectRatio="none" width="100%" height="100%" overflow="visible" style="display: block;" viewBox="0 0 12.783 13.9389" fill="none" xmlns="http://www.w3.org/2000/svg">
<path id="Vector" d="M11.4334 12.8986C10.1092 13.5488 8.8615 13.9389 6.95169 13.9389C2.69919 13.9389 0 11.1563 0 6.96943C0 3.25067 2.6228 0 6.5952 0C10.7968 0 12.783 3.25067 12.783 6.94342C12.783 7.22948 12.732 7.8016 12.7066 8.06165H3.71775C4.12518 9.90803 5.62756 10.8442 7.63923 10.8442C9.34532 10.8442 10.9496 10.2981 12.4265 9.51795L12.5029 9.56996L11.4334 12.8986ZM6.5188 2.83458C4.99096 2.83458 3.89601 4.03083 3.69229 5.82519H9.19253C9.03975 4.00482 8.04665 2.83458 6.5188 2.83458Z" fill="var(--fill-0, #F51D00)"/>
</svg>
