<svg preserveAspectRatio="none" width="100%" height="100%" overflow="visible" style="display: block;" viewBox="0 0 77.9636 22.6128" fill="none" xmlns="http://www.w3.org/2000/svg">
<g id="Sherpa">
<path id="Vector" d="M70.2953 18.2764C69.0704 18.2764 68.0823 17.9579 67.3309 17.321C66.596 16.6676 66.2285 15.8428 66.2285 14.8465C66.2285 13.7686 66.6123 12.9029 67.3799 12.2496C68.1639 11.58 69.2745 11.0982 70.7118 10.8042L74.1662 10.1427V9.06472C74.1662 8.23174 73.9457 7.59476 73.5048 7.15378C73.0638 6.71279 72.5003 6.4923 71.8143 6.4923C71.0793 6.4923 70.4668 6.75362 69.9769 7.27627C69.5032 7.78259 69.2746 8.54207 69.2909 9.5547L66.4245 8.96672C66.5388 8.24808 66.8246 7.59476 67.2819 7.00678C67.7393 6.4188 68.3517 5.95331 69.1194 5.61033C69.9034 5.251 70.818 5.07134 71.8633 5.07134C73.4639 5.07134 74.7379 5.47966 75.6852 6.2963C76.6325 7.11294 77.1061 8.27258 77.1061 9.77519V16.488L77.9636 17.8109V18.0314H74.1662V16.047C73.7742 16.7493 73.2434 17.2965 72.5738 17.6884C71.9205 18.0804 71.161 18.2764 70.2953 18.2764ZM74.1662 14.0871V11.4411L71.7653 11.9556C70.8997 12.168 70.2627 12.4864 69.8544 12.9111C69.446 13.3194 69.2419 13.8502 69.2419 14.5035C69.2419 15.0425 69.4215 15.4917 69.7809 15.851C70.1565 16.2103 70.6465 16.39 71.2508 16.39C72.0021 16.39 72.6228 16.1695 73.1128 15.7285C73.6191 15.2712 73.9702 14.724 74.1662 14.0871Z" fill="var(--fill-0, #F51D00)"/>
<path id="Vector_2" d="M51.469 22.6128V22.3923L52.3265 21.0693V7.37427L51.469 6.07581V5.87982L55.2419 5.19384V7.47227C55.5686 6.76996 56.0831 6.19831 56.7854 5.75732C57.504 5.3 58.3043 5.07134 59.1863 5.07134C60.2969 5.07134 61.2769 5.349 62.1262 5.90432C62.9755 6.45963 63.637 7.23544 64.1106 8.23174C64.6006 9.21171 64.8456 10.3632 64.8456 11.6861C64.8456 12.9601 64.5761 14.0952 64.0371 15.0915C63.5145 16.0878 62.7795 16.8718 61.8322 17.4435C60.9012 17.9988 59.8233 18.2764 58.5983 18.2764C57.2264 18.2764 56.1157 17.8109 55.2664 16.88V21.0693L56.4179 22.3923V22.6128H51.469ZM58.2798 16.7085C58.9985 16.7085 59.6191 16.488 60.1418 16.047C60.6644 15.606 61.0727 15.0099 61.3667 14.2586C61.6607 13.5072 61.8077 12.6579 61.8077 11.7106C61.8077 10.3223 61.4974 9.21171 60.8767 8.37874C60.2561 7.52943 59.4394 7.10478 58.4268 7.10478C57.6265 7.10478 56.9324 7.38244 56.3444 7.93775C55.7564 8.47674 55.3971 9.17905 55.2664 10.0447V13.9891C55.4624 14.8384 55.8217 15.508 56.3444 15.998C56.8834 16.4716 57.5285 16.7085 58.2798 16.7085Z" fill="var(--fill-0, #F51D00)"/>
<path id="Vector_3" d="M42.2602 18.0314V17.8109L43.1177 16.635V7.37427L42.2602 6.07581V5.87982L46.0576 5.19384V7.93775C46.3679 7.05578 46.8334 6.36164 47.454 5.85532C48.091 5.33267 48.8178 5.07134 49.6345 5.07134C49.7978 5.07134 49.953 5.07951 50.1 5.09584C50.2469 5.09584 50.3776 5.11218 50.4919 5.14484L50.2959 8.01125C49.4793 7.76626 48.777 7.74992 48.189 7.96225C47.6174 8.17458 47.1519 8.51757 46.7926 8.99122C46.4496 9.46487 46.2046 9.97119 46.0576 10.5102V16.6105L47.2335 17.8109V18.0314H42.2602Z" fill="var(--fill-0, #F51D00)"/>
<path id="Vector_4" d="M31.7275 11.5146C31.7765 12.9356 32.1603 14.0462 32.8789 14.8465C33.6139 15.6305 34.5285 16.0225 35.6228 16.0225C36.4885 16.0225 37.2153 15.7938 37.8033 15.3365C38.3912 14.8629 38.8322 14.2096 39.1262 13.3766L40.7187 13.8176C40.441 15.1405 39.8122 16.2185 38.8322 17.0515C37.8523 17.8681 36.6028 18.2764 35.0838 18.2764C33.7772 18.2764 32.6503 17.9743 31.703 17.37C30.7557 16.7656 30.0207 15.9653 29.498 14.969C28.9917 13.9564 28.7385 12.8539 28.7385 11.6616C28.7385 10.4693 28.9754 9.37504 29.449 8.37874C29.939 7.38244 30.6413 6.58213 31.556 5.97781C32.4706 5.3735 33.5649 5.07134 34.8389 5.07134C35.9332 5.07134 36.856 5.251 37.6073 5.61033C38.3749 5.96965 38.9874 6.45963 39.4447 7.08028C39.9184 7.68459 40.2532 8.37057 40.4492 9.13822C40.6452 9.90586 40.7187 10.698 40.6697 11.5146H31.7275ZM34.8389 6.4923C33.9732 6.4923 33.2791 6.84345 32.7564 7.54576C32.2501 8.24808 31.9316 9.11371 31.801 10.1427H37.6073C37.5746 9.48937 37.4439 8.88506 37.2153 8.32974C36.9866 7.77442 36.6763 7.33344 36.2843 7.00678C35.8923 6.66379 35.4105 6.4923 34.8389 6.4923Z" fill="var(--fill-0, #F51D00)"/>
<path id="Vector_5" d="M14.6012 18.0314V17.8109L15.4586 16.635V2.18044L14.6012 0.881975V0.685983L18.423 2.86102e-06V7.61926C18.766 6.88429 19.2723 6.27997 19.942 5.80632C20.6116 5.31634 21.3711 5.07134 22.2204 5.07134C23.478 5.07134 24.5152 5.46333 25.3318 6.24731C26.1648 7.01495 26.5813 8.08475 26.5813 9.4567V16.635L27.4388 17.8109V18.0314H22.7594V17.8109L23.6169 16.635V9.79969C23.6169 8.95039 23.4127 8.31341 23.0044 7.88875C22.5961 7.4641 22.0326 7.25177 21.3139 7.25177C20.628 7.25177 20.0155 7.5131 19.4765 8.03575C18.9375 8.5584 18.5864 9.25254 18.423 10.1182V16.635L19.2805 17.8109V18.0314H14.6012Z" fill="var(--fill-0, #F51D00)"/>
<path id="Vector_6" d="M6.61479 18.2764C5.56949 18.2764 4.58952 18.1049 3.67488 17.7619C2.77658 17.419 2.00077 16.9453 1.34746 16.341C0.710477 15.7367 0.261325 15.0425 0 14.2586L2.08243 12.3476L2.30293 12.3721C2.56425 13.7441 3.0869 14.7812 3.87088 15.4835C4.65485 16.1858 5.56949 16.537 6.61479 16.537C7.61109 16.537 8.42773 16.2838 9.06471 15.7775C9.70169 15.2549 10.0202 14.5444 10.0202 13.6461C10.0202 12.9111 9.79152 12.2986 9.3342 11.8086C8.87689 11.3023 8.23991 10.9103 7.42326 10.6327L4.97334 9.84869C3.63405 9.37504 2.57242 8.77073 1.78844 8.03575C1.0208 7.30077 0.63698 6.28814 0.63698 4.99785C0.63698 4.01788 0.898305 3.1604 1.42095 2.42543C1.94361 1.69045 2.66225 1.12697 3.57689 0.73498C4.49152 0.32666 5.54499 0.1225 6.73729 0.1225C7.58659 0.1225 8.4114 0.261329 9.21171 0.538986C10.0283 0.800312 10.7552 1.18413 11.3921 1.69045C12.0291 2.19677 12.4946 2.80925 12.7886 3.52789L10.7552 5.31633H10.5347C10.306 4.2547 9.86502 3.41356 9.21171 2.79291C8.5584 2.17227 7.73359 1.86194 6.73729 1.86194C5.83898 1.86194 5.10401 2.08244 4.53236 2.52342C3.96071 2.96441 3.67488 3.56056 3.67488 4.31187C3.67488 4.96518 3.88721 5.496 4.31186 5.90432C4.73652 6.31264 5.3245 6.63929 6.07581 6.88429L8.69723 7.76626C10.0692 8.22358 11.1471 8.85239 11.9311 9.6527C12.7314 10.4367 13.1316 11.531 13.1316 12.9356C13.1316 13.9972 12.8539 14.9364 12.2986 15.753C11.7433 16.5533 10.9757 17.174 9.99568 17.6149C9.01571 18.0559 7.88875 18.2764 6.61479 18.2764Z" fill="var(--fill-0, #F51D00)"/>
</g>
</svg>
