<svg width="192" height="32" viewBox="0 0 192 32" fill="none" xmlns="http://www.w3.org/2000/svg">
<path d="M96.2591 25.0235C94.9349 25.6737 93.6872 26.0637 91.7774 26.0637C87.5249 26.0637 84.8257 23.2812 84.8257 19.0943C84.8257 15.3755 87.4485 12.1249 91.4209 12.1249C95.6225 12.1249 97.6087 15.3755 97.6087 19.0683C97.6087 19.3544 97.5577 19.9265 97.5323 20.1865H88.5434C88.9509 22.0329 90.4532 22.9691 92.4649 22.9691C94.171 22.9691 95.7752 22.423 97.2522 21.6428L97.3285 21.6948L96.2591 25.0235ZM91.3445 14.9595C89.8166 14.9595 88.7217 16.1557 88.518 17.9501H94.0182C93.8654 16.1297 92.8723 14.9595 91.3445 14.9595Z" fill="#F51D00"/>
<path d="M71.2236 24.8154C70.1032 25.5176 68.6263 26.0897 66.8693 26.0897C63.0751 26.0897 60.2231 23.4372 60.2231 19.1203C60.2231 15.1935 63.0242 12.1768 67.1748 12.1768C69.0337 12.1768 70.3833 12.749 71.4528 13.5291V17.4819H71.4019C70.2305 16.4677 68.8809 15.6876 67.4295 15.6876C65.3924 15.6876 64.0428 17.1699 64.0428 19.1463C64.0428 21.1747 65.3924 22.579 67.3276 22.579C68.83 22.579 70.5106 21.8248 71.6311 20.9406L71.682 20.9666L71.2236 24.8154Z" fill="#F51D00"/>
<path d="M45.4287 19.1463C45.4287 15.5056 48.1788 12.1249 52.4823 12.1249C56.913 12.1249 59.5103 15.4796 59.5103 19.0943C59.5103 22.7611 56.7602 26.1418 52.4568 26.1418C48.0515 26.1418 45.4287 22.7611 45.4287 19.1463ZM52.4823 15.4796C50.5215 15.4796 49.1719 17.0919 49.1719 19.1463C49.1719 21.2267 50.5725 22.7871 52.4568 22.7871C54.4175 22.7871 55.7671 21.1487 55.7671 19.0943C55.7671 17.0139 54.3666 15.4796 52.4823 15.4796Z" fill="#F51D00"/>
<path d="M38.3185 20.0047H36.485V25.7779H32.3599V7.57413H38.2675C42.5455 7.57413 45.4484 9.60254 45.4484 13.6594C45.4484 17.6902 42.4946 20.0047 38.3185 20.0047ZM38.1657 11.0588H36.4087V16.65H38.1147C40.1519 16.65 41.3996 15.5578 41.3996 13.7374C41.3996 12.0991 40.2283 11.0588 38.1657 11.0588Z" fill="#F51D00"/>
<path d="M81.31 25.7778L77.1339 20.3167H76.5482V25.7778H72.6777V10.1171L76.5482 6.14407V17.7941H77.1084L81.1827 12.4891H85.588V12.5411L80.4697 18.8864L85.9445 25.7258V25.7778H81.31Z" fill="#F51D00"/>
<path d="M107.414 25.1275C106.523 25.6997 105.377 26.0637 104.053 26.0637C101.303 26.0637 99.6222 24.4774 99.6222 20.9927V14.0693H97.636L97.636 11.549H99.6222V9.82329L103.395 7.47864L103.416 11.0007H107.923V14.0693H103.416V20.6806C103.416 22.0849 104.129 22.7091 105.377 22.7091C106.294 22.7091 107.083 22.319 107.949 21.6688L108 21.6948L107.414 25.1275Z" fill="#F51D00"/>
<path d="M103.389 6.13651L97.6391 11.5537H103.389V6.13651Z" fill="#F51D00"/>
<path d="M13.8828 0C21.5498 0.000158958 27.7646 6.34776 27.7646 14.1777C27.7646 22.0076 21.5497 28.3553 13.8828 28.3555C10.9471 28.3555 8.22504 27.4231 5.98242 25.835L10.3574 21.3965C11.4189 21.9381 12.6156 22.2451 13.8828 22.2451C18.2455 22.2449 21.782 18.6332 21.7822 14.1777C21.7821 9.72223 18.2456 6.10959 13.8828 6.10938C9.54462 6.10938 6.02436 9.68081 5.98438 14.1016H5.98242V25.835L0 32V14.1777C0 6.34766 6.21571 0 13.8828 0Z" fill="#F51D00"/>
<path d="M183.667 26.4664C182.442 26.4664 181.454 26.1479 180.703 25.5109C179.968 24.8576 179.601 24.0328 179.601 23.0365C179.601 21.9585 179.984 21.0929 180.752 20.4396C181.536 19.7699 182.647 19.2881 184.084 18.9941L187.538 18.3327V17.2547C187.538 16.4217 187.318 15.7847 186.877 15.3438C186.436 14.9028 185.872 14.6823 185.186 14.6823C184.451 14.6823 183.839 14.9436 183.349 15.4663C182.875 15.9726 182.647 16.732 182.663 17.7447L179.797 17.1567C179.911 16.4381 180.197 15.7847 180.654 15.1968C181.111 14.6088 181.724 14.1433 182.491 13.8003C183.275 13.441 184.19 13.2613 185.235 13.2613C186.836 13.2613 188.11 13.6696 189.057 14.4863C190.005 15.3029 190.478 16.4626 190.478 17.9652V24.678L191.336 26.0009V26.2214H187.538V24.237C187.146 24.9393 186.615 25.4864 185.946 25.8784C185.293 26.2704 184.533 26.4664 183.667 26.4664ZM187.538 22.277V19.6311L185.137 20.1456C184.272 20.3579 183.635 20.6764 183.226 21.1011C182.818 21.5094 182.614 22.0402 182.614 22.6935C182.614 23.2325 182.794 23.6817 183.153 24.041C183.529 24.4003 184.019 24.58 184.623 24.58C185.374 24.58 185.995 24.3595 186.485 23.9185C186.991 23.4612 187.342 22.914 187.538 22.277Z" fill="#F51D00"/>
<path d="M164.841 30.8028V30.5823L165.699 29.2593V15.5642L164.841 14.2658V14.0698L168.614 13.3838V15.6622C168.941 14.9599 169.455 14.3883 170.157 13.9473C170.876 13.49 171.676 13.2613 172.558 13.2613C173.669 13.2613 174.649 13.539 175.498 14.0943C176.348 14.6496 177.009 15.4254 177.483 16.4217C177.973 17.4017 178.218 18.5532 178.218 19.8761C178.218 21.1501 177.948 22.2852 177.409 23.2815C176.887 24.2778 176.152 25.0618 175.204 25.6334C174.273 26.1887 173.195 26.4664 171.97 26.4664C170.598 26.4664 169.488 26.0009 168.638 25.0699V29.2593L169.79 30.5823V30.8028H164.841ZM171.652 24.8985C172.37 24.8985 172.991 24.678 173.514 24.237C174.036 23.796 174.445 23.1998 174.739 22.4485C175.033 21.6972 175.18 20.8479 175.18 19.9006C175.18 18.5123 174.869 17.4017 174.249 16.5687C173.628 15.7194 172.811 15.2948 171.799 15.2948C170.999 15.2948 170.304 15.5724 169.716 16.1277C169.128 16.6667 168.769 17.369 168.638 18.2347V22.179C168.834 23.0283 169.194 23.698 169.716 24.188C170.255 24.6616 170.901 24.8985 171.652 24.8985Z" fill="#F51D00"/>
<path d="M155.632 26.2214V26.0009L156.49 24.825V15.5642L155.632 14.2658V14.0698L159.43 13.3838V16.1277C159.74 15.2458 160.205 14.5516 160.826 14.0453C161.463 13.5226 162.19 13.2613 163.007 13.2613C163.17 13.2613 163.325 13.2695 163.472 13.2858C163.619 13.2858 163.75 13.3022 163.864 13.3348L163.668 16.2012C162.851 15.9562 162.149 15.9399 161.561 16.1522C160.989 16.3646 160.524 16.7075 160.165 17.1812C159.822 17.6549 159.577 18.1612 159.43 18.7002V24.8005L160.606 26.0009V26.2214H155.632Z" fill="#F51D00"/>
<path d="M145.1 19.7046C145.148 21.1256 145.532 22.2362 146.251 23.0365C146.986 23.8205 147.901 24.2125 148.995 24.2125C149.861 24.2125 150.587 23.9838 151.175 23.5265C151.763 23.0528 152.204 22.3995 152.498 21.5666L154.091 22.0075C153.813 23.3305 153.184 24.4085 152.204 25.2414C151.224 26.0581 149.975 26.4664 148.456 26.4664C147.149 26.4664 146.022 26.1642 145.075 25.5599C144.128 24.9556 143.393 24.1553 142.87 23.159C142.364 22.1464 142.111 21.0439 142.111 19.8516C142.111 18.6593 142.347 17.565 142.821 16.5687C143.311 15.5724 144.013 14.7721 144.928 14.1678C145.843 13.5635 146.937 13.2613 148.211 13.2613C149.305 13.2613 150.228 13.441 150.979 13.8003C151.747 14.1596 152.359 14.6496 152.817 15.2703C153.29 15.8746 153.625 16.5606 153.821 17.3282C154.017 18.0958 154.091 18.888 154.042 19.7046H145.1ZM148.211 14.6823C147.345 14.6823 146.651 15.0334 146.128 15.7357C145.622 16.4381 145.304 17.3037 145.173 18.3327H150.979C150.947 17.6793 150.816 17.075 150.587 16.5197C150.359 15.9644 150.048 15.5234 149.656 15.1968C149.264 14.8538 148.783 14.6823 148.211 14.6823Z" fill="#F51D00"/>
<path d="M127.973 26.2214V26.0009L128.831 24.8249V10.3704L127.973 9.07194V8.87595L131.795 8.18997V15.8092C132.138 15.0743 132.644 14.4699 133.314 13.9963C133.984 13.5063 134.743 13.2613 135.592 13.2613C136.85 13.2613 137.887 13.6533 138.704 14.4373C139.537 15.2049 139.953 16.2747 139.953 17.6467V24.8249L140.811 26.0009V26.2214H136.131V26.0009L136.989 24.8249V17.9897C136.989 17.1404 136.785 16.5034 136.376 16.0787C135.968 15.6541 135.405 15.4417 134.686 15.4417C134 15.4417 133.388 15.7031 132.849 16.2257C132.31 16.7484 131.958 17.4425 131.795 18.3082V24.8249L132.653 26.0009V26.2214H127.973Z" fill="#F51D00"/>
<path d="M119.987 26.4664C118.942 26.4664 117.962 26.2949 117.047 25.9519C116.149 25.6089 115.373 25.1353 114.72 24.531C114.083 23.9266 113.633 23.2325 113.372 22.4485L115.455 20.5376L115.675 20.5621C115.936 21.934 116.459 22.9712 117.243 23.6735C118.027 24.3758 118.942 24.7269 119.987 24.7269C120.983 24.7269 121.8 24.4738 122.437 23.9675C123.074 23.4448 123.392 22.7343 123.392 21.836C123.392 21.1011 123.164 20.4886 122.706 19.9986C122.249 19.4923 121.612 19.1003 120.795 18.8226L118.345 18.0387C117.006 17.565 115.944 16.9607 115.161 16.2257C114.393 15.4907 114.009 14.4781 114.009 13.1878C114.009 12.2078 114.27 11.3504 114.793 10.6154C115.316 9.88042 116.034 9.31694 116.949 8.92495C117.864 8.51663 118.917 8.31247 120.109 8.31247C120.959 8.31247 121.783 8.4513 122.584 8.72896C123.4 8.99028 124.127 9.3741 124.764 9.88042C125.401 10.3867 125.867 10.9992 126.161 11.7179L124.127 13.5063H123.907C123.678 12.4447 123.237 11.6035 122.584 10.9829C121.93 10.3622 121.106 10.0519 120.109 10.0519C119.211 10.0519 118.476 10.2724 117.904 10.7134C117.333 11.1544 117.047 11.7505 117.047 12.5018C117.047 13.1551 117.259 13.686 117.684 14.0943C118.109 14.5026 118.697 14.8293 119.448 15.0743L122.069 15.9562C123.441 16.4135 124.519 17.0424 125.303 17.8427C126.104 18.6266 126.504 19.7209 126.504 21.1256C126.504 22.1872 126.226 23.1263 125.671 23.943C125.115 24.7433 124.348 25.3639 123.368 25.8049C122.388 26.2459 121.261 26.4664 119.987 26.4664Z" fill="#F51D00"/>
</svg>
